<svg id="Layer_1" data-name="Layer 1" xmlns="http://www.w3.org/2000/svg" width="70px" height="70px"  viewBox="0 0 70 70"><defs><style>.cls-1{fill:#22b711;}</style></defs><path class="cls-1" d="M68.71,22.57a2.62,2.62,0,0,0-4.6-.89A43,43,0,0,1,52.4,32.27l3.05-5.76a1,1,0,0,0-1.82-1l-4.52,8.54a42.44,42.44,0,0,1-10.48,3.59L55.5,10.78l4.56,2.64-4.19,7.91a1,1,0,0,0,1.82,1l4.19-7.92A4.08,4.08,0,0,0,65.22,7L58.51,3.08a4.09,4.09,0,0,0-4.75,6.61L35.92,38.13c-.69.1-1.39.18-2.09.24-1-4.83-3.63-10.48-6.11-13a11,11,0,0,0-3.31-2.28A1,1,0,0,0,23.58,25a8.8,8.8,0,0,1,2.69,1.85C28.38,29,30.8,34.18,31.76,38.5c-1.46,0-2.92,0-4.53-.06l-1-1h1.38a1,1,0,0,0,0-2H24.19l-3.48-3.47h3.74a1,1,0,1,0,0-2.05H18.66L14.83,26A8.24,8.24,0,0,1,19.2,24.3a1,1,0,1,0-.19-2,10.48,10.48,0,0,0-5.64,2.32L8.21,19.42a1,1,0,0,0-1.45,1.45L11.92,26a10.54,10.54,0,0,0-2.34,7.31A44,44,0,0,1,4.2,29.86,2.62,2.62,0,0,0,0,32,35,35,0,0,0,20.24,63.71a3.22,3.22,0,0,0-.89,2.22,3.26,3.26,0,0,0,3.25,3.25H47.39a3.26,3.26,0,0,0,3.25-3.25,3.2,3.2,0,0,0-.88-2.21A35,35,0,0,0,68.71,22.57Zm-14-17a2,2,0,0,1,2.78-.74L64.2,8.74a2,2,0,0,1-2,3.52L55.45,8.38A2,2,0,0,1,54.7,5.6ZM17.06,36.54V31.17l3,3v3.21C19.05,37.13,18.05,36.85,17.06,36.54Zm5.05-.33,1.9,1.9c-.64-.09-1.27-.19-1.9-.31Zm-8.73-8.73L15,29.12v6.71c-1.09-.41-2.16-.87-3.22-1.36A8.47,8.47,0,0,1,13.38,27.48ZM47,62.69H29.67a1,1,0,1,0,0,2H47.39a1.2,1.2,0,1,1,0,2.39H22.6a1.2,1.2,0,1,1,0-2.39h2.28a1,1,0,1,0,0-2H23.09a33.15,33.15,0,0,1-21-30.76A.57.57,0,0,1,3,31.5a44.9,44.9,0,0,0,62.77-8.58.57.57,0,0,1,1,.2A32.87,32.87,0,0,1,47,62.69Z"/><path class="cls-1" d="M28.51,22c3.81,0,10-2.51,12.41-4.92A8.26,8.26,0,0,0,41.7,6.25l3.68-3.68a1,1,0,0,0-1.45-1.45L40.25,4.8a8.26,8.26,0,0,0-10.85.78,20.5,20.5,0,0,0-4.09,7.71c-.67,2.18-1.55,6.08.14,7.76A4.24,4.24,0,0,0,28.51,22ZM27.27,13.9A18.67,18.67,0,0,1,30.85,7a6.2,6.2,0,0,1,7.93-.76l-.91.91H32.11a1,1,0,1,0,0,2.05h3.71L34.1,11H31A1,1,0,0,0,31,13h1.1l-3.51,3.51a1,1,0,0,0,.73,1.75A1,1,0,0,0,30,18l2.11-2.11v.4a1,1,0,0,0,2,0V13.8l1.47-1.47v2.15a1,1,0,1,0,2.05,0v-4.2l2.56-2.56a6.2,6.2,0,0,1-.76,7.93,18.75,18.75,0,0,1-6.87,3.58c-3.19,1-5.19.88-5.7.37S26.29,17.09,27.27,13.9Z"/></svg>